<?xml version="1.0" encoding="UTF-8"?>
<svg style="vertical-align: -4.638ex;" xmlns="http://www.w3.org/2000/svg" width="50.202ex" height="10.407ex" role="img" focusable="false" viewBox="0 -2550 22189.4 4600"><g stroke="#e6edf3" fill="#e6edf3" stroke-width="0" transform="scale(1,-1)"><g data-mml-node="math"><g data-mml-node="TeXAtom" data-mjx-texclass="ORD"><g data-mml-node="mi"><path data-c="63" d="M370 305T349 305T313 320T297 358Q297 381 312 396Q317 401 317 402T307 404Q281 408 258 408Q209 408 178 376Q131 329 131 219Q131 137 162 90Q203 29 272 29Q313 29 338 55T374 117Q376 125 379 127T395 129H409Q415 123 415 120Q415 116 411 104T395 71T366 33T318 2T249 -11Q163 -11 99 53T34 214Q34 318 99 383T250 448T370 421T404 357Q404 334 387 320Z"></path><path data-c="6C" d="M42 46H56Q95 46 103 60V68Q103 77 103 91T103 124T104 167T104 217T104 272T104 329Q104 366 104 407T104 482T104 542T103 586T103 603Q100 622 89 628T44 637H26V660Q26 683 28 683L38 684Q48 685 67 686T104 688Q121 689 141 690T171 693T182 694H185V379Q185 62 186 60Q190 52 198 49Q219 46 247 46H263V0H255L232 1Q209 2 183 2T145 3T107 3T57 1L34 0H26V46H42Z" transform="translate(444,0)"></path><path data-c="61" d="M137 305T115 305T78 320T63 359Q63 394 97 421T218 448Q291 448 336 416T396 340Q401 326 401 309T402 194V124Q402 76 407 58T428 40Q443 40 448 56T453 109V145H493V106Q492 66 490 59Q481 29 455 12T400 -6T353 12T329 54V58L327 55Q325 52 322 49T314 40T302 29T287 17T269 6T247 -2T221 -8T190 -11Q130 -11 82 20T34 107Q34 128 41 147T68 188T116 225T194 253T304 268H318V290Q318 324 312 340Q290 411 215 411Q197 411 181 410T156 406T148 403Q170 388 170 359Q170 334 154 320ZM126 106Q126 75 150 51T209 26Q247 26 276 49T315 109Q317 116 318 175Q318 233 317 233Q309 233 296 232T251 223T193 203T147 166T126 106Z" transform="translate(722,0)"></path><path data-c="73" d="M295 316Q295 356 268 385T190 414Q154 414 128 401Q98 382 98 349Q97 344 98 336T114 312T157 287Q175 282 201 278T245 269T277 256Q294 248 310 236T342 195T359 133Q359 71 321 31T198 -10H190Q138 -10 94 26L86 19L77 10Q71 4 65 -1L54 -11H46H42Q39 -11 33 -5V74V132Q33 153 35 157T45 162H54Q66 162 70 158T75 146T82 119T101 77Q136 26 198 26Q295 26 295 104Q295 133 277 151Q257 175 194 187T111 210Q75 227 54 256T33 318Q33 357 50 384T93 424T143 442T187 447H198Q238 447 268 432L283 424L292 431Q302 440 314 448H322H326Q329 448 335 442V310L329 304H301Q295 310 295 316Z" transform="translate(1222,0)"></path><path data-c="73" d="M295 316Q295 356 268 385T190 414Q154 414 128 401Q98 382 98 349Q97 344 98 336T114 312T157 287Q175 282 201 278T245 269T277 256Q294 248 310 236T342 195T359 133Q359 71 321 31T198 -10H190Q138 -10 94 26L86 19L77 10Q71 4 65 -1L54 -11H46H42Q39 -11 33 -5V74V132Q33 153 35 157T45 162H54Q66 162 70 158T75 146T82 119T101 77Q136 26 198 26Q295 26 295 104Q295 133 277 151Q257 175 194 187T111 210Q75 227 54 256T33 318Q33 357 50 384T93 424T143 442T187 447H198Q238 447 268 432L283 424L292 431Q302 440 314 448H322H326Q329 448 335 442V310L329 304H301Q295 310 295 316Z" transform="translate(1616,0)"></path><path data-c="69" d="M69 609Q69 637 87 653T131 669Q154 667 171 652T188 609Q188 579 171 564T129 549Q104 549 87 564T69 609ZM247 0Q232 3 143 3Q132 3 106 3T56 1L34 0H26V46H42Q70 46 91 49Q100 53 102 60T104 102V205V293Q104 345 102 359T88 378Q74 385 41 385H30V408Q30 431 32 431L42 432Q52 433 70 434T106 436Q123 437 142 438T171 441T182 442H185V62Q190 52 197 50T232 46H255V0H247Z" transform="translate(2010,0)"></path><path data-c="66" d="M273 0Q255 3 146 3Q43 3 34 0H26V46H42Q70 46 91 49Q99 52 103 60Q104 62 104 224V385H33V431H104V497L105 564L107 574Q126 639 171 668T266 704Q267 704 275 704T289 705Q330 702 351 679T372 627Q372 604 358 590T321 576T284 590T270 627Q270 647 288 667H284Q280 668 273 668Q245 668 223 647T189 592Q183 572 182 497V431H293V385H185V225Q185 63 186 61T189 57T194 54T199 51T206 49T213 48T222 47T231 47T241 46T251 46H282V0H273Z" transform="translate(2288,0)"></path><path data-c="79" d="M69 -66Q91 -66 104 -80T118 -116Q118 -134 109 -145T91 -160Q84 -163 97 -166Q104 -168 111 -168Q131 -168 148 -159T175 -138T197 -106T213 -75T225 -43L242 0L170 183Q150 233 125 297Q101 358 96 368T80 381Q79 382 78 382Q66 385 34 385H19V431H26L46 430Q65 430 88 429T122 428Q129 428 142 428T171 429T200 430T224 430L233 431H241V385H232Q183 385 185 366L286 112Q286 113 332 227L376 341V350Q376 365 366 373T348 383T334 385H331V431H337H344Q351 431 361 431T382 430T405 429T422 429Q477 429 503 431H508V385H497Q441 380 422 345Q420 343 378 235T289 9T227 -131Q180 -204 113 -204Q69 -204 44 -177T19 -116Q19 -89 35 -78T69 -66Z" transform="translate(2594,0)"></path></g></g><g data-mml-node="mo" transform="translate(3122,0)"><path data-c="28" d="M94 250Q94 319 104 381T127 488T164 576T202 643T244 695T277 729T302 750H315H319Q333 750 333 741Q333 738 316 720T275 667T226 581T184 443T167 250T184 58T225 -81T274 -167T316 -220T333 -241Q333 -250 318 -250H315H302L274 -226Q180 -141 137 -14T94 250Z"></path></g><g data-mml-node="mi" transform="translate(3511,0)"><path data-c="1D453" d="M118 -162Q120 -162 124 -164T135 -167T147 -168Q160 -168 171 -155T187 -126Q197 -99 221 27T267 267T289 382V385H242Q195 385 192 387Q188 390 188 397L195 425Q197 430 203 430T250 431Q298 431 298 432Q298 434 307 482T319 540Q356 705 465 705Q502 703 526 683T550 630Q550 594 529 578T487 561Q443 561 443 603Q443 622 454 636T478 657L487 662Q471 668 457 668Q445 668 434 658T419 630Q412 601 403 552T387 469T380 433Q380 431 435 431Q480 431 487 430T498 424Q499 420 496 407T491 391Q489 386 482 386T428 385H372L349 263Q301 15 282 -47Q255 -132 212 -173Q175 -205 139 -205Q107 -205 81 -186T55 -132Q55 -95 76 -78T118 -61Q162 -61 162 -103Q162 -122 151 -136T127 -157L118 -162Z"></path></g><g data-mml-node="mo" transform="translate(4061,0)"><path data-c="29" d="M60 749L64 750Q69 750 74 750H86L114 726Q208 641 251 514T294 250Q294 182 284 119T261 12T224 -76T186 -143T145 -194T113 -227T90 -246Q87 -249 86 -250H74Q66 -250 63 -250T58 -247T55 -238Q56 -237 66 -225Q221 -64 221 250T66 725Q56 737 55 738Q55 746 60 749Z"></path></g><g data-mml-node="mo" transform="translate(4727.8,0)"><path data-c="3D" d="M56 347Q56 360 70 367H707Q722 359 722 347Q722 336 708 328L390 327H72Q56 332 56 347ZM56 153Q56 168 72 173H708Q722 163 722 153Q722 140 707 133H70Q56 140 56 153Z"></path></g><g data-mml-node="mrow" transform="translate(5783.6,0)"><g data-mml-node="mo"><path data-c="23A7" d="M712 899L718 893V876V865Q718 854 704 846Q627 793 577 710T510 525Q510 524 509 521Q505 493 504 349Q504 345 504 334Q504 277 504 240Q504 -2 503 -4Q502 -8 494 -9T444 -10Q392 -10 390 -9Q387 -8 386 -5Q384 5 384 230Q384 262 384 312T383 382Q383 481 392 535T434 656Q510 806 664 892L677 899H712Z" transform="translate(0,1651)"></path><path data-c="23A9" d="M718 -893L712 -899H677L666 -893Q542 -825 468 -714T385 -476Q384 -466 384 -282Q384 3 385 5L389 9Q392 10 444 10Q486 10 494 9T503 4Q504 2 504 -239V-310V-366Q504 -470 508 -513T530 -609Q546 -657 569 -698T617 -767T661 -812T699 -843T717 -856T718 -876V-893Z" transform="translate(0,-1151)"></path><path data-c="23A8" d="M389 1159Q391 1160 455 1160Q496 1160 498 1159Q501 1158 502 1155Q504 1145 504 924Q504 691 503 682Q494 549 425 439T243 259L229 250L243 241Q349 175 421 66T503 -182Q504 -191 504 -424Q504 -600 504 -629T499 -659H498Q496 -660 444 -660T390 -659Q387 -658 386 -655Q384 -645 384 -425V-282Q384 -176 377 -116T342 10Q325 54 301 92T255 155T214 196T183 222T171 232Q170 233 170 250T171 268Q171 269 191 284T240 331T300 407T354 524T383 679Q384 691 384 925Q384 1152 385 1155L389 1159Z" transform="translate(0,0)"></path><svg width="889" height="681" y="1060" x="0" viewBox="0 120 889 681"><path data-c="23AA" d="M384 150V266Q384 304 389 309Q391 310 455 310Q496 310 498 309Q502 308 503 298Q504 283 504 150Q504 32 504 12T499 -9H498Q496 -10 444 -10T390 -9Q386 -8 385 2Q384 17 384 150Z" transform="scale(1,3.349)"></path></svg><svg width="889" height="681" y="-1241" x="0" viewBox="0 120 889 681"><path data-c="23AA" d="M384 150V266Q384 304 389 309Q391 310 455 310Q496 310 498 309Q502 308 503 298Q504 283 504 150Q504 32 504 12T499 -9H498Q496 -10 444 -10T390 -9Q386 -8 385 2Q384 17 384 150Z" transform="scale(1,3.349)"></path></svg></g><g data-mml-node="mtable" transform="translate(889,0)"><g data-mml-node="mtr" transform="translate(0,1800)"><g data-mml-node="mtd"><g data-mml-node="TeXAtom" data-mjx-texclass="ORD"><g data-mml-node="mi"><path data-c="63" d="M370 305T349 305T313 320T297 358Q297 381 312 396Q317 401 317 402T307 404Q281 408 258 408Q209 408 178 376Q131 329 131 219Q131 137 162 90Q203 29 272 29Q313 29 338 55T374 117Q376 125 379 127T395 129H409Q415 123 415 120Q415 116 411 104T395 71T366 33T318 2T249 -11Q163 -11 99 53T34 214Q34 318 99 383T250 448T370 421T404 357Q404 334 387 320Z"></path><path data-c="6F" d="M28 214Q28 309 93 378T250 448Q340 448 405 380T471 215Q471 120 407 55T250 -10Q153 -10 91 57T28 214ZM250 30Q372 30 372 193V225V250Q372 272 371 288T364 326T348 362T317 390T268 410Q263 411 252 411Q222 411 195 399Q152 377 139 338T126 246V226Q126 130 145 91Q177 30 250 30Z" transform="translate(444,0)"></path><path data-c="6E" d="M41 46H55Q94 46 102 60V68Q102 77 102 91T102 122T103 161T103 203Q103 234 103 269T102 328V351Q99 370 88 376T43 385H25V408Q25 431 27 431L37 432Q47 433 65 434T102 436Q119 437 138 438T167 441T178 442H181V402Q181 364 182 364T187 369T199 384T218 402T247 421T285 437Q305 442 336 442Q450 438 463 329Q464 322 464 190V104Q464 66 466 59T477 49Q498 46 526 46H542V0H534L510 1Q487 2 460 2T422 3Q319 3 310 0H302V46H318Q379 46 379 62Q380 64 380 200Q379 335 378 343Q372 371 358 385T334 402T308 404Q263 404 229 370Q202 343 195 315T187 232V168V108Q187 78 188 68T191 55T200 49Q221 46 249 46H265V0H257L234 1Q210 2 183 2T145 3Q42 3 33 0H25V46H41Z" transform="translate(944,0)"></path><path data-c="66" d="M273 0Q255 3 146 3Q43 3 34 0H26V46H42Q70 46 91 49Q99 52 103 60Q104 62 104 224V385H33V431H104V497L105 564L107 574Q126 639 171 668T266 704Q267 704 275 704T289 705Q330 702 351 679T372 627Q372 604 358 590T321 576T284 590T270 627Q270 647 288 667H284Q280 668 273 668Q245 668 223 647T189 592Q183 572 182 497V431H293V385H185V225Q185 63 186 61T189 57T194 54T199 51T206 49T213 48T222 47T231 47T241 46T251 46H282V0H273Z" transform="translate(1500,0)"></path><path data-c="69" d="M69 609Q69 637 87 653T131 669Q154 667 171 652T188 609Q188 579 171 564T129 549Q104 549 87 564T69 609ZM247 0Q232 3 143 3Q132 3 106 3T56 1L34 0H26V46H42Q70 46 91 49Q100 53 102 60T104 102V205V293Q104 345 102 359T88 378Q74 385 41 385H30V408Q30 431 32 431L42 432Q52 433 70 434T106 436Q123 437 142 438T171 441T182 442H185V62Q190 52 197 50T232 46H255V0H247Z" transform="translate(1806,0)"></path><path data-c="67" d="M329 409Q373 453 429 453Q459 453 472 434T485 396Q485 382 476 371T449 360Q416 360 412 390Q410 404 415 411Q415 412 416 414V415Q388 412 363 393Q355 388 355 386Q355 385 359 381T368 369T379 351T388 325T392 292Q392 230 343 187T222 143Q172 143 123 171Q112 153 112 133Q112 98 138 81Q147 75 155 75T227 73Q311 72 335 67Q396 58 431 26Q470 -13 470 -72Q470 -139 392 -175Q332 -206 250 -206Q167 -206 107 -175Q29 -140 29 -75Q29 -39 50 -15T92 18L103 24Q67 55 67 108Q67 155 96 193Q52 237 52 292Q52 355 102 398T223 442Q274 442 318 416L329 409ZM299 343Q294 371 273 387T221 404Q192 404 171 388T145 343Q142 326 142 292Q142 248 149 227T179 192Q196 182 222 182Q244 182 260 189T283 207T294 227T299 242Q302 258 302 292T299 343ZM403 -75Q403 -50 389 -34T348 -11T299 -2T245 0H218Q151 0 138 -6Q118 -15 107 -34T95 -74Q95 -84 101 -97T122 -127T170 -155T250 -167Q319 -167 361 -139T403 -75Z" transform="translate(2084,0)"></path></g></g></g><g data-mml-node="mtd" transform="translate(4171,0)"><g data-mml-node="mi"><path data-c="1D453" d="M118 -162Q120 -162 124 -164T135 -167T147 -168Q160 -168 171 -155T187 -126Q197 -99 221 27T267 267T289 382V385H242Q195 385 192 387Q188 390 188 397L195 425Q197 430 203 430T250 431Q298 431 298 432Q298 434 307 482T319 540Q356 705 465 705Q502 703 526 683T550 630Q550 594 529 578T487 561Q443 561 443 603Q443 622 454 636T478 657L487 662Q471 668 457 668Q445 668 434 658T419 630Q412 601 403 552T387 469T380 433Q380 431 435 431Q480 431 487 430T498 424Q499 420 496 407T491 391Q489 386 482 386T428 385H372L349 263Q301 15 282 -47Q255 -132 212 -173Q175 -205 139 -205Q107 -205 81 -186T55 -132Q55 -95 76 -78T118 -61Q162 -61 162 -103Q162 -122 151 -136T127 -157L118 -162Z"></path></g><g data-mml-node="mo" transform="translate(827.8,0)"><path data-c="2208" d="M84 250Q84 372 166 450T360 539Q361 539 377 539T419 540T469 540H568Q583 532 583 520Q583 511 570 501L466 500Q355 499 329 494Q280 482 242 458T183 409T147 354T129 306T124 272V270H568Q583 262 583 250T568 230H124V228Q124 207 134 177T167 112T231 48T328 7Q355 1 466 0H570Q583 -10 583 -20Q583 -32 568 -40H471Q464 -40 446 -40T417 -41Q262 -41 172 45Q84 127 84 250Z"></path></g><g data-mml-node="mo" transform="translate(1772.6,0)"><path data-c="7B" d="M434 -231Q434 -244 428 -250H410Q281 -250 230 -184Q225 -177 222 -172T217 -161T213 -148T211 -133T210 -111T209 -84T209 -47T209 0Q209 21 209 53Q208 142 204 153Q203 154 203 155Q189 191 153 211T82 231Q71 231 68 234T65 250T68 266T82 269Q116 269 152 289T203 345Q208 356 208 377T209 529V579Q209 634 215 656T244 698Q270 724 324 740Q361 748 377 749Q379 749 390 749T408 750H428Q434 744 434 732Q434 719 431 716Q429 713 415 713Q362 710 332 689T296 647Q291 634 291 499V417Q291 370 288 353T271 314Q240 271 184 255L170 250L184 245Q202 239 220 230T262 196T290 137Q291 131 291 1Q291 -134 296 -147Q306 -174 339 -192T415 -213Q429 -213 431 -216Q434 -219 434 -231Z"></path></g><g data-mml-node="mtext" transform="translate(2272.6,0)"><path data-c="2E" d="M193 70Q193 105 214 122T258 140Q291 140 311 120T332 70Q332 44 314 23T262 1Q234 1 214 18T193 70Z"></path><path data-c="1D693" d="M261 559Q261 580 277 596T319 612Q342 612 359 597T376 560T360 523T320 507Q296 507 279 523T261 559ZM75 -91T100 -91T138 -107T152 -144V-150L160 -151H193H203Q241 -151 267 -121Q284 -97 288 -73T292 23V151V355H218L145 356Q123 365 123 387V393Q123 422 145 430H148Q151 430 156 430T169 430T185 430T205 431T227 431T251 431H354Q356 430 360 427T365 424T369 420T372 416T373 410T375 402T376 391T377 376T377 356Q377 345 377 286T376 176Q376 -67 371 -88Q362 -123 342 -151T299 -194Q254 -228 180 -228Q84 -226 56 -177Q49 -162 48 -148Q48 -122 61 -107Z" transform="translate(525,0)"></path><path data-c="1D69C" d="M72 317Q72 361 108 396T229 439Q231 439 245 439T268 440Q303 439 324 435T353 427T363 423L372 432Q380 440 397 440Q430 440 430 395Q430 390 430 380T429 366V335Q429 311 422 302T387 293Q364 293 355 300T346 316T343 336T325 353Q306 364 257 364Q209 364 178 351T147 317Q147 284 231 272Q327 256 357 247Q458 210 458 129V121Q458 74 413 34T271 -6Q246 -6 224 -3T189 5T165 14T150 22T144 26Q142 23 139 18T135 11T132 6T128 1T124 -2T119 -4T113 -5T104 -6Q84 -6 78 6T71 43Q71 48 71 60T72 79Q72 132 73 141T81 157Q90 166 115 166Q135 166 142 162T157 140Q168 108 191 90T260 70Q297 70 323 76T361 91T379 110T384 129Q384 157 346 171T247 195T165 212Q119 228 96 256T72 317Z" transform="translate(1050,0)"></path><path data-c="1D698" d="M52 216Q52 318 118 379T261 440Q343 440 407 378T472 216Q472 121 410 58T262 -6Q176 -6 114 58T52 216ZM388 225Q388 281 351 322T261 364Q213 364 175 325T136 225Q136 158 174 114T262 70T350 114T388 225Z" transform="translate(1575,0)"></path><path data-c="1D697" d="M89 431Q94 431 105 431T122 432Q173 432 173 399Q173 394 175 394Q176 394 190 404T233 425T298 436Q343 436 371 423Q411 402 423 365T436 265Q436 257 436 239T435 211V198V76H498Q512 67 516 60T520 38Q520 9 498 1H308Q286 9 286 32V38V45Q286 65 303 73Q309 76 329 76H351V188Q351 204 351 230T352 266Q352 321 341 341T288 361Q253 361 222 341T176 274L174 264L173 170V76H236Q250 67 254 60T258 38Q258 9 236 1H27Q4 8 4 38Q4 53 8 60T27 76H89V355H58L27 356Q4 363 4 393Q4 408 8 415T27 431H89Z" transform="translate(2100,0)"></path></g><g data-mml-node="mo" transform="translate(4897.6,0)"><path data-c="2C" d="M78 35T78 60T94 103T137 121Q165 121 187 96T210 8Q210 -27 201 -60T180 -117T154 -158T130 -185T117 -194Q113 -194 104 -185T95 -172Q95 -168 106 -156T131 -126T157 -76T173 -3V9L172 8Q170 7 167 6T161 3T152 1T140 0Q113 0 96 17Z"></path></g><g data-mml-node="mstyle" transform="translate(5175.6,0)"><g data-mml-node="mspace"></g></g><g data-mml-node="mtext" transform="translate(5509.2,0)"><path data-c="2E" d="M193 70Q193 105 214 122T258 140Q291 140 311 120T332 70Q332 44 314 23T262 1Q234 1 214 18T193 70Z"></path><path data-c="1D6A2" d="M26 393Q26 417 37 424T80 431H134H217Q232 422 235 416T239 393Q239 379 236 371T226 360T214 356T197 355L179 354V353L188 330Q197 306 209 272T235 201T259 133T271 89V84L274 95Q279 122 298 185T335 300T352 354Q352 355 331 355Q312 355 304 358Q288 368 288 393Q288 408 291 415T310 431H478Q479 430 484 427T491 422T495 416T499 407T500 393Q500 376 493 367T479 357T458 355H452Q426 355 425 353Q420 337 351 124T280 -94Q240 -195 168 -220Q147 -228 125 -228Q89 -228 66 -201T42 -139Q42 -116 56 -102T93 -87Q117 -87 130 -102T144 -135V-138H126Q121 -148 121 -150T130 -152Q182 -147 207 -87Q211 -78 223 -40T236 1Q230 10 102 355H75L49 356Q26 363 26 393Z" transform="translate(525,0)"></path><path data-c="1D68A" d="M126 306Q105 306 90 321T74 359Q74 439 211 439Q268 439 276 438Q343 426 383 390T430 306Q431 301 431 190V81Q446 79 465 78T492 76T509 72T521 60T524 38Q524 11 506 3Q502 1 466 1Q426 1 406 5T379 14T355 36L345 30Q284 -6 205 -6Q135 -6 92 39T48 141Q48 182 79 212T158 256T252 278T342 285H347V290Q347 315 325 335T267 362Q258 363 224 363Q189 363 185 362H179L178 358Q178 353 178 352T176 345T174 337T170 330T165 322T158 316T150 311T139 308T126 306ZM132 140Q132 115 157 93T224 70Q269 70 302 87T344 133Q346 139 347 175V211H339Q256 209 194 190T132 140Z" transform="translate(1050,0)"></path><path data-c="1D696" d="M133 76Q156 74 164 67T172 38Q172 9 151 1H11Q-12 8 -12 38Q-12 61 5 73Q10 75 28 76H45V355H28Q10 356 5 358Q-12 370 -12 393Q-12 419 11 431H52H70Q91 431 100 427T116 405Q163 436 200 436Q255 436 281 390L285 394Q289 398 292 400T301 407T314 415T329 423T346 429T366 434T389 436H392Q425 436 448 411Q469 390 474 360T480 268V232V203V76H497Q520 74 528 67T536 38Q536 9 515 1H396Q374 9 374 32V38Q374 73 402 76H409V191V242Q409 317 404 339T375 361Q343 361 323 332T299 264Q298 258 298 165V76H315Q338 74 346 67T354 38Q354 9 333 1H214Q192 9 192 32V38Q192 73 220 76H227V191V242Q227 317 222 339T193 361Q161 361 141 332T117 264Q116 258 116 165V76H133Z" transform="translate(1575,0)"></path><path data-c="1D695" d="M51 573Q51 602 73 610H76Q79 610 84 610T97 610T113 610T133 611T155 611T179 611H282Q301 598 304 586V76H452Q466 67 470 60T474 38Q474 10 452 1H73Q51 9 51 32V38Q51 54 54 60T73 76H220V535H146L73 536Q51 545 51 567V573Z" transform="translate(2100,0)"></path></g><g data-mml-node="mo" transform="translate(8134.2,0)"><path data-c="2C" d="M78 35T78 60T94 103T137 121Q165 121 187 96T210 8Q210 -27 201 -60T180 -117T154 -158T130 -185T117 -194Q113 -194 104 -185T95 -172Q95 -168 106 -156T131 -126T157 -76T173 -3V9L172 8Q170 7 167 6T161 3T152 1T140 0Q113 0 96 17Z"></path></g><g data-mml-node="mstyle" transform="translate(8412.2,0)"><g data-mml-node="mspace"></g></g><g data-mml-node="mtext" transform="translate(8745.9,0)"><path data-c="2E" d="M193 70Q193 105 214 122T258 140Q291 140 311 120T332 70Q332 44 314 23T262 1Q234 1 214 18T193 70Z"></path><path data-c="1D68E" d="M48 217Q48 295 100 361T248 439L258 440Q268 440 274 440Q329 438 369 416T428 359T456 292T464 228Q464 215 461 208T454 198T442 190L288 189H135L138 179Q153 132 199 102T303 71Q336 71 353 86T380 120T398 143Q404 146 422 146Q453 146 462 126Q464 120 464 116Q464 84 416 39T285 -6Q187 -6 118 59T48 217ZM377 264Q371 291 365 306T341 338T294 362Q288 363 264 363Q225 363 190 336T139 264H377Z" transform="translate(525,0)"></path><path data-c="1D697" d="M89 431Q94 431 105 431T122 432Q173 432 173 399Q173 394 175 394Q176 394 190 404T233 425T298 436Q343 436 371 423Q411 402 423 365T436 265Q436 257 436 239T435 211V198V76H498Q512 67 516 60T520 38Q520 9 498 1H308Q286 9 286 32V38V45Q286 65 303 73Q309 76 329 76H351V188Q351 204 351 230T352 266Q352 321 341 341T288 361Q253 361 222 341T176 274L174 264L173 170V76H236Q250 67 254 60T258 38Q258 9 236 1H27Q4 8 4 38Q4 53 8 60T27 76H89V355H58L27 356Q4 363 4 393Q4 408 8 415T27 431H89Z" transform="translate(1050,0)"></path><path data-c="1D69F" d="M24 392Q24 417 36 424T79 432Q85 432 103 432T132 431H215Q229 422 233 415T237 393Q237 355 198 355H193H172L262 77L352 355H331H323Q288 355 288 393Q288 409 291 415T310 431H478Q491 423 495 416T500 393Q500 364 478 356L452 355H426L374 190Q320 24 318 20Q307 -4 273 -4H262H251Q217 -4 206 20Q204 24 150 190L98 355H72L47 356Q24 363 24 392Z" transform="translate(1575,0)"></path></g><g data-mml-node="mo" transform="translate(10845.9,0)"><path data-c="7D" d="M65 731Q65 745 68 747T88 750Q171 750 216 725T279 670Q288 649 289 635T291 501Q292 362 293 357Q306 312 345 291T417 269Q428 269 431 266T434 250T431 234T417 231Q380 231 345 210T298 157Q293 143 292 121T291 -28V-79Q291 -134 285 -156T256 -198Q202 -250 89 -250Q71 -250 68 -247T65 -230Q65 -224 65 -223T66 -218T69 -214T77 -213Q91 -213 108 -210T146 -200T183 -177T207 -139Q208 -134 209 3L210 139Q223 196 280 230Q315 247 330 250Q305 257 280 270Q225 304 212 352L210 362L209 498Q208 635 207 640Q195 680 154 696T77 713Q68 713 67 716T65 731Z"></path></g></g></g><g data-mml-node="mtr" transform="translate(0,600)"><g data-mml-node="mtd"><g data-mml-node="TeXAtom" data-mjx-texclass="ORD"><g data-mml-node="mi"><path data-c="74" d="M27 422Q80 426 109 478T141 600V615H181V431H316V385H181V241Q182 116 182 100T189 68Q203 29 238 29Q282 29 292 100Q293 108 293 146V181H333V146V134Q333 57 291 17Q264 -10 221 -10Q187 -10 162 2T124 33T105 68T98 100Q97 107 97 248V385H18V422H27Z"></path><path data-c="65" d="M28 218Q28 273 48 318T98 391T163 433T229 448Q282 448 320 430T378 380T406 316T415 245Q415 238 408 231H126V216Q126 68 226 36Q246 30 270 30Q312 30 342 62Q359 79 369 104L379 128Q382 131 395 131H398Q415 131 415 121Q415 117 412 108Q393 53 349 21T250 -11Q155 -11 92 58T28 218ZM333 275Q322 403 238 411H236Q228 411 220 410T195 402T166 381T143 340T127 274V267H333V275Z" transform="translate(389,0)"></path><path data-c="73" d="M295 316Q295 356 268 385T190 414Q154 414 128 401Q98 382 98 349Q97 344 98 336T114 312T157 287Q175 282 201 278T245 269T277 256Q294 248 310 236T342 195T359 133Q359 71 321 31T198 -10H190Q138 -10 94 26L86 19L77 10Q71 4 65 -1L54 -11H46H42Q39 -11 33 -5V74V132Q33 153 35 157T45 162H54Q66 162 70 158T75 146T82 119T101 77Q136 26 198 26Q295 26 295 104Q295 133 277 151Q257 175 194 187T111 210Q75 227 54 256T33 318Q33 357 50 384T93 424T143 442T187 447H198Q238 447 268 432L283 424L292 431Q302 440 314 448H322H326Q329 448 335 442V310L329 304H301Q295 310 295 316Z" transform="translate(833,0)"></path><path data-c="74" d="M27 422Q80 426 109 478T141 600V615H181V431H316V385H181V241Q182 116 182 100T189 68Q203 29 238 29Q282 29 292 100Q293 108 293 146V181H333V146V134Q333 57 291 17Q264 -10 221 -10Q187 -10 162 2T124 33T105 68T98 100Q97 107 97 248V385H18V422H27Z" transform="translate(1227,0)"></path></g></g></g><g data-mml-node="mtd" transform="translate(4171,0)"><g data-mml-node="mi"><path data-c="1D453" d="M118 -162Q120 -162 124 -164T135 -167T147 -168Q160 -168 171 -155T187 -126Q197 -99 221 27T267 267T289 382V385H242Q195 385 192 387Q188 390 188 397L195 425Q197 430 203 430T250 431Q298 431 298 432Q298 434 307 482T319 540Q356 705 465 705Q502 703 526 683T550 630Q550 594 529 578T487 561Q443 561 443 603Q443 622 454 636T478 657L487 662Q471 668 457 668Q445 668 434 658T419 630Q412 601 403 552T387 469T380 433Q380 431 435 431Q480 431 487 430T498 424Q499 420 496 407T491 391Q489 386 482 386T428 385H372L349 263Q301 15 282 -47Q255 -132 212 -173Q175 -205 139 -205Q107 -205 81 -186T55 -132Q55 -95 76 -78T118 -61Q162 -61 162 -103Q162 -122 151 -136T127 -157L118 -162Z"></path></g><g data-mml-node="mo" transform="translate(827.8,0)"><path data-c="2208" d="M84 250Q84 372 166 450T360 539Q361 539 377 539T419 540T469 540H568Q583 532 583 520Q583 511 570 501L466 500Q355 499 329 494Q280 482 242 458T183 409T147 354T129 306T124 272V270H568Q583 262 583 250T568 230H124V228Q124 207 134 177T167 112T231 48T328 7Q355 1 466 0H570Q583 -10 583 -20Q583 -32 568 -40H471Q464 -40 446 -40T417 -41Q262 -41 172 45Q84 127 84 250Z"></path></g><g data-mml-node="mo" transform="translate(1772.6,0)"><path data-c="7B" d="M434 -231Q434 -244 428 -250H410Q281 -250 230 -184Q225 -177 222 -172T217 -161T213 -148T211 -133T210 -111T209 -84T209 -47T209 0Q209 21 209 53Q208 142 204 153Q203 154 203 155Q189 191 153 211T82 231Q71 231 68 234T65 250T68 266T82 269Q116 269 152 289T203 345Q208 356 208 377T209 529V579Q209 634 215 656T244 698Q270 724 324 740Q361 748 377 749Q379 749 390 749T408 750H428Q434 744 434 732Q434 719 431 716Q429 713 415 713Q362 710 332 689T296 647Q291 634 291 499V417Q291 370 288 353T271 314Q240 271 184 255L170 250L184 245Q202 239 220 230T262 196T290 137Q291 131 291 1Q291 -134 296 -147Q306 -174 339 -192T415 -213Q429 -213 431 -216Q434 -219 434 -231Z"></path></g><g data-mml-node="mtext" transform="translate(2272.6,0)"><path data-c="1D69D" d="M25 395Q26 405 26 408T29 416T35 423T48 431H145V481L146 532Q154 547 161 550T184 554H189Q218 554 227 534Q229 529 229 480V431H405Q406 430 411 427T418 422T422 416T426 407T427 393Q427 387 427 382T424 374T421 368T417 363T413 360T408 358L405 356L317 355H229V249Q229 237 229 214T228 179Q228 126 241 98T295 70Q354 70 365 149Q366 167 375 174Q383 182 407 182H415Q438 182 446 166Q448 161 448 148Q448 84 398 39T282 -6Q226 -6 189 29T146 128Q145 134 145 247V355H96H72Q45 355 35 362T25 395Z"></path><path data-c="1D68E" d="M48 217Q48 295 100 361T248 439L258 440Q268 440 274 440Q329 438 369 416T428 359T456 292T464 228Q464 215 461 208T454 198T442 190L288 189H135L138 179Q153 132 199 102T303 71Q336 71 353 86T380 120T398 143Q404 146 422 146Q453 146 462 126Q464 120 464 116Q464 84 416 39T285 -6Q187 -6 118 59T48 217ZM377 264Q371 291 365 306T341 338T294 362Q288 363 264 363Q225 363 190 336T139 264H377Z" transform="translate(525,0)"></path><path data-c="1D69C" d="M72 317Q72 361 108 396T229 439Q231 439 245 439T268 440Q303 439 324 435T353 427T363 423L372 432Q380 440 397 440Q430 440 430 395Q430 390 430 380T429 366V335Q429 311 422 302T387 293Q364 293 355 300T346 316T343 336T325 353Q306 364 257 364Q209 364 178 351T147 317Q147 284 231 272Q327 256 357 247Q458 210 458 129V121Q458 74 413 34T271 -6Q246 -6 224 -3T189 5T165 14T150 22T144 26Q142 23 139 18T135 11T132 6T128 1T124 -2T119 -4T113 -5T104 -6Q84 -6 78 6T71 43Q71 48 71 60T72 79Q72 132 73 141T81 157Q90 166 115 166Q135 166 142 162T157 140Q168 108 191 90T260 70Q297 70 323 76T361 91T379 110T384 129Q384 157 346 171T247 195T165 212Q119 228 96 256T72 317Z" transform="translate(1050,0)"></path><path data-c="1D69D" d="M25 395Q26 405 26 408T29 416T35 423T48 431H145V481L146 532Q154 547 161 550T184 554H189Q218 554 227 534Q229 529 229 480V431H405Q406 430 411 427T418 422T422 416T426 407T427 393Q427 387 427 382T424 374T421 368T417 363T413 360T408 358L405 356L317 355H229V249Q229 237 229 214T228 179Q228 126 241 98T295 70Q354 70 365 149Q366 167 375 174Q383 182 407 182H415Q438 182 446 166Q448 161 448 148Q448 84 398 39T282 -6Q226 -6 189 29T146 128Q145 134 145 247V355H96H72Q45 355 35 362T25 395Z" transform="translate(1575,0)"></path></g><g data-mml-node="mo" transform="translate(4372.6,0)"><path data-c="2C" d="M78 35T78 60T94 103T137 121Q165 121 187 96T210 8Q210 -27 201 -60T180 -117T154 -158T130 -185T117 -194Q113 -194 104 -185T95 -172Q95 -168 106 -156T131 -126T157 -76T173 -3V9L172 8Q170 7 167 6T161 3T152 1T140 0Q113 0 96 17Z"></path></g><g data-mml-node="mstyle" transform="translate(4650.6,0)"><g data-mml-node="mspace"></g></g><g data-mml-node="mtext" transform="translate(4984.2,0)"><path data-c="1D69C" d="M72 317Q72 361 108 396T229 439Q231 439 245 439T268 440Q303 439 324 435T353 427T363 423L372 432Q380 440 397 440Q430 440 430 395Q430 390 430 380T429 366V335Q429 311 422 302T387 293Q364 293 355 300T346 316T343 336T325 353Q306 364 257 364Q209 364 178 351T147 317Q147 284 231 272Q327 256 357 247Q458 210 458 129V121Q458 74 413 34T271 -6Q246 -6 224 -3T189 5T165 14T150 22T144 26Q142 23 139 18T135 11T132 6T128 1T124 -2T119 -4T113 -5T104 -6Q84 -6 78 6T71 43Q71 48 71 60T72 79Q72 132 73 141T81 157Q90 166 115 166Q135 166 142 162T157 140Q168 108 191 90T260 70Q297 70 323 76T361 91T379 110T384 129Q384 157 346 171T247 195T165 212Q119 228 96 256T72 317Z"></path><path data-c="1D699" d="M89 431Q93 431 104 431T121 432Q173 432 173 401V396L182 402Q237 437 305 437Q376 437 434 378T492 217Q492 146 459 93T382 17T291 -6Q261 -6 232 5T188 26L174 37Q173 37 173 -54V-146H236Q250 -155 254 -162T258 -184Q258 -213 236 -221H27Q4 -214 4 -184Q4 -169 8 -162T27 -146H89V355H58L27 356Q4 363 4 393Q4 408 8 415T27 431H89ZM409 215Q409 269 377 315T283 361Q255 361 224 344T177 297L173 290V167Q189 124 213 97T278 70Q330 70 369 111T409 215Z" transform="translate(525,0)"></path><path data-c="1D68E" d="M48 217Q48 295 100 361T248 439L258 440Q268 440 274 440Q329 438 369 416T428 359T456 292T464 228Q464 215 461 208T454 198T442 190L288 189H135L138 179Q153 132 199 102T303 71Q336 71 353 86T380 120T398 143Q404 146 422 146Q453 146 462 126Q464 120 464 116Q464 84 416 39T285 -6Q187 -6 118 59T48 217ZM377 264Q371 291 365 306T341 338T294 362Q288 363 264 363Q225 363 190 336T139 264H377Z" transform="translate(1050,0)"></path><path data-c="1D68C" d="M291 -6Q196 -6 131 60T66 216Q66 296 119 361Q154 403 200 421T273 439Q275 440 293 440H313Q400 440 433 409Q454 388 454 359Q454 335 439 321T402 306Q380 306 365 321T350 357V362L340 363Q339 363 326 363T303 364Q280 364 266 362Q217 352 184 313T151 215Q151 153 199 112T313 70Q341 70 357 85T381 118T394 140Q402 146 424 146Q443 146 447 144Q466 137 466 117Q466 106 457 88T429 47T374 10T291 -6Z" transform="translate(1575,0)"></path></g><g data-mml-node="mo" transform="translate(7084.2,0)"><path data-c="7D" d="M65 731Q65 745 68 747T88 750Q171 750 216 725T279 670Q288 649 289 635T291 501Q292 362 293 357Q306 312 345 291T417 269Q428 269 431 266T434 250T431 234T417 231Q380 231 345 210T298 157Q293 143 292 121T291 -28V-79Q291 -134 285 -156T256 -198Q202 -250 89 -250Q71 -250 68 -247T65 -230Q65 -224 65 -223T66 -218T69 -214T77 -213Q91 -213 108 -210T146 -200T183 -177T207 -139Q208 -134 209 3L210 139Q223 196 280 230Q315 247 330 250Q305 257 280 270Q225 304 212 352L210 362L209 498Q208 635 207 640Q195 680 154 696T77 713Q68 713 67 716T65 731Z"></path></g></g></g><g data-mml-node="mtr" transform="translate(0,-600)"><g data-mml-node="mtd"><g data-mml-node="TeXAtom" data-mjx-texclass="ORD"><g data-mml-node="mi"><path data-c="73" d="M295 316Q295 356 268 385T190 414Q154 414 128 401Q98 382 98 349Q97 344 98 336T114 312T157 287Q175 282 201 278T245 269T277 256Q294 248 310 236T342 195T359 133Q359 71 321 31T198 -10H190Q138 -10 94 26L86 19L77 10Q71 4 65 -1L54 -11H46H42Q39 -11 33 -5V74V132Q33 153 35 157T45 162H54Q66 162 70 158T75 146T82 119T101 77Q136 26 198 26Q295 26 295 104Q295 133 277 151Q257 175 194 187T111 210Q75 227 54 256T33 318Q33 357 50 384T93 424T143 442T187 447H198Q238 447 268 432L283 424L292 431Q302 440 314 448H322H326Q329 448 335 442V310L329 304H301Q295 310 295 316Z"></path><path data-c="63" d="M370 305T349 305T313 320T297 358Q297 381 312 396Q317 401 317 402T307 404Q281 408 258 408Q209 408 178 376Q131 329 131 219Q131 137 162 90Q203 29 272 29Q313 29 338 55T374 117Q376 125 379 127T395 129H409Q415 123 415 120Q415 116 411 104T395 71T366 33T318 2T249 -11Q163 -11 99 53T34 214Q34 318 99 383T250 448T370 421T404 357Q404 334 387 320Z" transform="translate(394,0)"></path><path data-c="68" d="M41 46H55Q94 46 102 60V68Q102 77 102 91T102 124T102 167T103 217T103 272T103 329Q103 366 103 407T103 482T102 542T102 586T102 603Q99 622 88 628T43 637H25V660Q25 683 27 683L37 684Q47 685 66 686T103 688Q120 689 140 690T170 693T181 694H184V367Q244 442 328 442Q451 442 463 329Q464 322 464 190V104Q464 66 466 59T477 49Q498 46 526 46H542V0H534L510 1Q487 2 460 2T422 3Q319 3 310 0H302V46H318Q379 46 379 62Q380 64 380 200Q379 335 378 343Q372 371 358 385T334 402T308 404Q263 404 229 370Q202 343 195 315T187 232V168V108Q187 78 188 68T191 55T200 49Q221 46 249 46H265V0H257L234 1Q210 2 183 2T145 3Q42 3 33 0H25V46H41Z" transform="translate(838,0)"></path><path data-c="65" d="M28 218Q28 273 48 318T98 391T163 433T229 448Q282 448 320 430T378 380T406 316T415 245Q415 238 408 231H126V216Q126 68 226 36Q246 30 270 30Q312 30 342 62Q359 79 369 104L379 128Q382 131 395 131H398Q415 131 415 121Q415 117 412 108Q393 53 349 21T250 -11Q155 -11 92 58T28 218ZM333 275Q322 403 238 411H236Q228 411 220 410T195 402T166 381T143 340T127 274V267H333V275Z" transform="translate(1394,0)"></path><path data-c="6D" d="M41 46H55Q94 46 102 60V68Q102 77 102 91T102 122T103 161T103 203Q103 234 103 269T102 328V351Q99 370 88 376T43 385H25V408Q25 431 27 431L37 432Q47 433 65 434T102 436Q119 437 138 438T167 441T178 442H181V402Q181 364 182 364T187 369T199 384T218 402T247 421T285 437Q305 442 336 442Q351 442 364 440T387 434T406 426T421 417T432 406T441 395T448 384T452 374T455 366L457 361L460 365Q463 369 466 373T475 384T488 397T503 410T523 422T546 432T572 439T603 442Q729 442 740 329Q741 322 741 190V104Q741 66 743 59T754 49Q775 46 803 46H819V0H811L788 1Q764 2 737 2T699 3Q596 3 587 0H579V46H595Q656 46 656 62Q657 64 657 200Q656 335 655 343Q649 371 635 385T611 402T585 404Q540 404 506 370Q479 343 472 315T464 232V168V108Q464 78 465 68T468 55T477 49Q498 46 526 46H542V0H534L510 1Q487 2 460 2T422 3Q319 3 310 0H302V46H318Q379 46 379 62Q380 64 380 200Q379 335 378 343Q372 371 358 385T334 402T308 404Q263 404 229 370Q202 343 195 315T187 232V168V108Q187 78 188 68T191 55T200 49Q221 46 249 46H265V0H257L234 1Q210 2 183 2T145 3Q42 3 33 0H25V46H41Z" transform="translate(1838,0)"></path><path data-c="61" d="M137 305T115 305T78 320T63 359Q63 394 97 421T218 448Q291 448 336 416T396 340Q401 326 401 309T402 194V124Q402 76 407 58T428 40Q443 40 448 56T453 109V145H493V106Q492 66 490 59Q481 29 455 12T400 -6T353 12T329 54V58L327 55Q325 52 322 49T314 40T302 29T287 17T269 6T247 -2T221 -8T190 -11Q130 -11 82 20T34 107Q34 128 41 147T68 188T116 225T194 253T304 268H318V290Q318 324 312 340Q290 411 215 411Q197 411 181 410T156 406T148 403Q170 388 170 359Q170 334 154 320ZM126 106Q126 75 150 51T209 26Q247 26 276 49T315 109Q317 116 318 175Q318 233 317 233Q309 233 296 232T251 223T193 203T147 166T126 106Z" transform="translate(2671,0)"></path></g></g></g><g data-mml-node="mtd" transform="translate(4171,0)"><g data-mml-node="mi"><path data-c="1D453" d="M118 -162Q120 -162 124 -164T135 -167T147 -168Q160 -168 171 -155T187 -126Q197 -99 221 27T267 267T289 382V385H242Q195 385 192 387Q188 390 188 397L195 425Q197 430 203 430T250 431Q298 431 298 432Q298 434 307 482T319 540Q356 705 465 705Q502 703 526 683T550 630Q550 594 529 578T487 561Q443 561 443 603Q443 622 454 636T478 657L487 662Q471 668 457 668Q445 668 434 658T419 630Q412 601 403 552T387 469T380 433Q380 431 435 431Q480 431 487 430T498 424Q499 420 496 407T491 391Q489 386 482 386T428 385H372L349 263Q301 15 282 -47Q255 -132 212 -173Q175 -205 139 -205Q107 -205 81 -186T55 -132Q55 -95 76 -78T118 -61Q162 -61 162 -103Q162 -122 151 -136T127 -157L118 -162Z"></path></g><g data-mml-node="mo" transform="translate(827.8,0)"><path data-c="2208" d="M84 250Q84 372 166 450T360 539Q361 539 377 539T419 540T469 540H568Q583 532 583 520Q583 511 570 501L466 500Q355 499 329 494Q280 482 242 458T183 409T147 354T129 306T124 272V270H568Q583 262 583 250T568 230H124V228Q124 207 134 177T167 112T231 48T328 7Q355 1 466 0H570Q583 -10 583 -20Q583 -32 568 -40H471Q464 -40 446 -40T417 -41Q262 -41 172 45Q84 127 84 250Z"></path></g><g data-mml-node="mo" transform="translate(1772.6,0)"><path data-c="7B" d="M434 -231Q434 -244 428 -250H410Q281 -250 230 -184Q225 -177 222 -172T217 -161T213 -148T211 -133T210 -111T209 -84T209 -47T209 0Q209 21 209 53Q208 142 204 153Q203 154 203 155Q189 191 153 211T82 231Q71 231 68 234T65 250T68 266T82 269Q116 269 152 289T203 345Q208 356 208 377T209 529V579Q209 634 215 656T244 698Q270 724 324 740Q361 748 377 749Q379 749 390 749T408 750H428Q434 744 434 732Q434 719 431 716Q429 713 415 713Q362 710 332 689T296 647Q291 634 291 499V417Q291 370 288 353T271 314Q240 271 184 255L170 250L184 245Q202 239 220 230T262 196T290 137Q291 131 291 1Q291 -134 296 -147Q306 -174 339 -192T415 -213Q429 -213 431 -216Q434 -219 434 -231Z"></path></g><g data-mml-node="mtext" transform="translate(2272.6,0)"><path data-c="2E" d="M193 70Q193 105 214 122T258 140Q291 140 311 120T332 70Q332 44 314 23T262 1Q234 1 214 18T193 70Z"></path><path data-c="1D69C" d="M72 317Q72 361 108 396T229 439Q231 439 245 439T268 440Q303 439 324 435T353 427T363 423L372 432Q380 440 397 440Q430 440 430 395Q430 390 430 380T429 366V335Q429 311 422 302T387 293Q364 293 355 300T346 316T343 336T325 353Q306 364 257 364Q209 364 178 351T147 317Q147 284 231 272Q327 256 357 247Q458 210 458 129V121Q458 74 413 34T271 -6Q246 -6 224 -3T189 5T165 14T150 22T144 26Q142 23 139 18T135 11T132 6T128 1T124 -2T119 -4T113 -5T104 -6Q84 -6 78 6T71 43Q71 48 71 60T72 79Q72 132 73 141T81 157Q90 166 115 166Q135 166 142 162T157 140Q168 108 191 90T260 70Q297 70 323 76T361 91T379 110T384 129Q384 157 346 171T247 195T165 212Q119 228 96 256T72 317Z" transform="translate(525,0)"></path><path data-c="1D69A" d="M34 215Q34 309 91 368T222 436Q224 436 231 436T242 437Q309 437 372 390V401Q372 419 381 428T414 437Q426 437 432 436T444 430T456 412V-146H489H504Q524 -146 534 -153T545 -184Q545 -211 527 -219Q523 -221 414 -221Q398 -221 374 -221T342 -222Q304 -222 294 -216T283 -184Q283 -157 301 -149Q307 -146 339 -146H372V-51Q372 43 371 43L364 38Q357 33 345 26T318 12T280 -1T236 -6Q155 -6 95 55T34 215ZM117 215Q117 152 157 111T250 70Q289 70 318 92T363 146Q372 163 372 192V215L371 263Q339 360 254 360Q206 360 162 321T117 215Z" transform="translate(1050,0)"></path><path data-c="1D695" d="M51 573Q51 602 73 610H76Q79 610 84 610T97 610T113 610T133 611T155 611T179 611H282Q301 598 304 586V76H452Q466 67 470 60T474 38Q474 10 452 1H73Q51 9 51 32V38Q51 54 54 60T73 76H220V535H146L73 536Q51 545 51 567V573Z" transform="translate(1575,0)"></path></g><g data-mml-node="mo" transform="translate(4372.6,0)"><path data-c="2C" d="M78 35T78 60T94 103T137 121Q165 121 187 96T210 8Q210 -27 201 -60T180 -117T154 -158T130 -185T117 -194Q113 -194 104 -185T95 -172Q95 -168 106 -156T131 -126T157 -76T173 -3V9L172 8Q170 7 167 6T161 3T152 1T140 0Q113 0 96 17Z"></path></g><g data-mml-node="mstyle" transform="translate(4650.6,0)"><g data-mml-node="mspace"></g></g><g data-mml-node="mtext" transform="translate(4984.2,0)"><path data-c="1D696" d="M133 76Q156 74 164 67T172 38Q172 9 151 1H11Q-12 8 -12 38Q-12 61 5 73Q10 75 28 76H45V355H28Q10 356 5 358Q-12 370 -12 393Q-12 419 11 431H52H70Q91 431 100 427T116 405Q163 436 200 436Q255 436 281 390L285 394Q289 398 292 400T301 407T314 415T329 423T346 429T366 434T389 436H392Q425 436 448 411Q469 390 474 360T480 268V232V203V76H497Q520 74 528 67T536 38Q536 9 515 1H396Q374 9 374 32V38Q374 73 402 76H409V191V242Q409 317 404 339T375 361Q343 361 323 332T299 264Q298 258 298 165V76H315Q338 74 346 67T354 38Q354 9 333 1H214Q192 9 192 32V38Q192 73 220 76H227V191V242Q227 317 222 339T193 361Q161 361 141 332T117 264Q116 258 116 165V76H133Z"></path><path data-c="1D692" d="M202 538T202 559T218 596T260 612Q283 612 300 597T317 560Q317 538 300 523T260 507Q235 507 219 522ZM411 76Q441 76 451 69T462 38Q462 29 462 26T460 18T453 9T440 1H94Q72 8 72 33V38Q72 46 72 49T74 58T81 68T94 76H233V355H167L102 356Q80 363 80 393Q80 418 91 425T138 432Q145 432 165 432T200 431H295Q297 429 303 425T310 420T314 415T317 404T317 389T318 363Q318 354 318 314T317 241V76H378H411Z" transform="translate(525,0)"></path><path data-c="1D690" d="M60 274Q60 337 107 386T233 436Q278 436 316 417L329 410L338 416Q384 442 427 442T489 423T509 381T494 345T460 332Q449 332 440 338Q432 341 427 348T419 360T415 365Q414 364 410 364L383 355Q406 320 406 274Q406 211 358 162T233 112Q189 112 155 128L146 133Q142 125 142 115Q142 99 150 85T175 71Q182 72 187 70Q188 70 195 70T218 70T254 69Q259 69 275 69T297 69T318 68T340 66T361 62T384 57T405 49T428 38Q495 -1 495 -76Q495 -143 427 -186T262 -229Q161 -229 94 -185T29 -73Q30 -60 33 -48T39 -26T47 -8T57 8T67 20T77 30T86 38L91 43Q91 44 86 53T75 80T70 117Q70 142 89 183L83 194Q60 232 60 274ZM321 274Q321 312 296 337T230 362Q197 362 171 338T145 274Q145 235 170 211T233 187Q273 187 297 212T321 274ZM422 -78Q422 -54 408 -38T366 -15T315 -6T255 -4H200Q198 -4 193 -4T183 -3Q148 -3 125 -26T102 -78Q102 -110 151 -132T261 -154Q321 -154 371 -132T422 -78Z" transform="translate(1050,0)"></path><path data-c="1D69B" d="M327 76Q359 76 369 70T380 38Q380 10 359 1H47Q24 8 24 38Q24 54 28 61T47 76H145V355H96L47 356Q24 363 24 393Q24 409 28 416T47 431H207Q223 419 226 414T229 393V387V369Q297 437 394 437Q436 437 461 417T487 368Q487 347 473 332T438 317Q428 317 420 320T407 327T398 337T393 347T390 356L388 361Q348 356 324 345Q228 299 228 170Q228 161 228 151T229 138V76H293H327Z" transform="translate(1575,0)"></path><path data-c="1D68A" d="M126 306Q105 306 90 321T74 359Q74 439 211 439Q268 439 276 438Q343 426 383 390T430 306Q431 301 431 190V81Q446 79 465 78T492 76T509 72T521 60T524 38Q524 11 506 3Q502 1 466 1Q426 1 406 5T379 14T355 36L345 30Q284 -6 205 -6Q135 -6 92 39T48 141Q48 182 79 212T158 256T252 278T342 285H347V290Q347 315 325 335T267 362Q258 363 224 363Q189 363 185 362H179L178 358Q178 353 178 352T176 345T174 337T170 330T165 322T158 316T150 311T139 308T126 306ZM132 140Q132 115 157 93T224 70Q269 70 302 87T344 133Q346 139 347 175V211H339Q256 209 194 190T132 140Z" transform="translate(2100,0)"></path><path data-c="1D69D" d="M25 395Q26 405 26 408T29 416T35 423T48 431H145V481L146 532Q154 547 161 550T184 554H189Q218 554 227 534Q229 529 229 480V431H405Q406 430 411 427T418 422T422 416T426 407T427 393Q427 387 427 382T424 374T421 368T417 363T413 360T408 358L405 356L317 355H229V249Q229 237 229 214T228 179Q228 126 241 98T295 70Q354 70 365 149Q366 167 375 174Q383 182 407 182H415Q438 182 446 166Q448 161 448 148Q448 84 398 39T282 -6Q226 -6 189 29T146 128Q145 134 145 247V355H96H72Q45 355 35 362T25 395Z" transform="translate(2625,0)"></path><path data-c="1D692" d="M202 538T202 559T218 596T260 612Q283 612 300 597T317 560Q317 538 300 523T260 507Q235 507 219 522ZM411 76Q441 76 451 69T462 38Q462 29 462 26T460 18T453 9T440 1H94Q72 8 72 33V38Q72 46 72 49T74 58T81 68T94 76H233V355H167L102 356Q80 363 80 393Q80 418 91 425T138 432Q145 432 165 432T200 431H295Q297 429 303 425T310 420T314 415T317 404T317 389T318 363Q318 354 318 314T317 241V76H378H411Z" transform="translate(3150,0)"></path><path data-c="1D698" d="M52 216Q52 318 118 379T261 440Q343 440 407 378T472 216Q472 121 410 58T262 -6Q176 -6 114 58T52 216ZM388 225Q388 281 351 322T261 364Q213 364 175 325T136 225Q136 158 174 114T262 70T350 114T388 225Z" transform="translate(3675,0)"></path><path data-c="1D697" d="M89 431Q94 431 105 431T122 432Q173 432 173 399Q173 394 175 394Q176 394 190 404T233 425T298 436Q343 436 371 423Q411 402 423 365T436 265Q436 257 436 239T435 211V198V76H498Q512 67 516 60T520 38Q520 9 498 1H308Q286 9 286 32V38V45Q286 65 303 73Q309 76 329 76H351V188Q351 204 351 230T352 266Q352 321 341 341T288 361Q253 361 222 341T176 274L174 264L173 170V76H236Q250 67 254 60T258 38Q258 9 236 1H27Q4 8 4 38Q4 53 8 60T27 76H89V355H58L27 356Q4 363 4 393Q4 408 8 415T27 431H89Z" transform="translate(4200,0)"></path></g><g data-mml-node="mo" transform="translate(9709.2,0)"><path data-c="7D" d="M65 731Q65 745 68 747T88 750Q171 750 216 725T279 670Q288 649 289 635T291 501Q292 362 293 357Q306 312 345 291T417 269Q428 269 431 266T434 250T431 234T417 231Q380 231 345 210T298 157Q293 143 292 121T291 -28V-79Q291 -134 285 -156T256 -198Q202 -250 89 -250Q71 -250 68 -247T65 -230Q65 -224 65 -223T66 -218T69 -214T77 -213Q91 -213 108 -210T146 -200T183 -177T207 -139Q208 -134 209 3L210 139Q223 196 280 230Q315 247 330 250Q305 257 280 270Q225 304 212 352L210 362L209 498Q208 635 207 640Q195 680 154 696T77 713Q68 713 67 716T65 731Z"></path></g></g></g><g data-mml-node="mtr" transform="translate(0,-1800)"><g data-mml-node="mtd"><g data-mml-node="TeXAtom" data-mjx-texclass="ORD"><g data-mml-node="mi"><path data-c="73" d="M295 316Q295 356 268 385T190 414Q154 414 128 401Q98 382 98 349Q97 344 98 336T114 312T157 287Q175 282 201 278T245 269T277 256Q294 248 310 236T342 195T359 133Q359 71 321 31T198 -10H190Q138 -10 94 26L86 19L77 10Q71 4 65 -1L54 -11H46H42Q39 -11 33 -5V74V132Q33 153 35 157T45 162H54Q66 162 70 158T75 146T82 119T101 77Q136 26 198 26Q295 26 295 104Q295 133 277 151Q257 175 194 187T111 210Q75 227 54 256T33 318Q33 357 50 384T93 424T143 442T187 447H198Q238 447 268 432L283 424L292 431Q302 440 314 448H322H326Q329 448 335 442V310L329 304H301Q295 310 295 316Z"></path><path data-c="6F" d="M28 214Q28 309 93 378T250 448Q340 448 405 380T471 215Q471 120 407 55T250 -10Q153 -10 91 57T28 214ZM250 30Q372 30 372 193V225V250Q372 272 371 288T364 326T348 362T317 390T268 410Q263 411 252 411Q222 411 195 399Q152 377 139 338T126 246V226Q126 130 145 91Q177 30 250 30Z" transform="translate(394,0)"></path><path data-c="75" d="M383 58Q327 -10 256 -10H249Q124 -10 105 89Q104 96 103 226Q102 335 102 348T96 369Q86 385 36 385H25V408Q25 431 27 431L38 432Q48 433 67 434T105 436Q122 437 142 438T172 441T184 442H187V261Q188 77 190 64Q193 49 204 40Q224 26 264 26Q290 26 311 35T343 58T363 90T375 120T379 144Q379 145 379 161T380 201T380 248V315Q380 361 370 372T320 385H302V431Q304 431 378 436T457 442H464V264Q464 84 465 81Q468 61 479 55T524 46H542V0Q540 0 467 -5T390 -11H383V58Z" transform="translate(894,0)"></path><path data-c="72" d="M36 46H50Q89 46 97 60V68Q97 77 97 91T98 122T98 161T98 203Q98 234 98 269T98 328L97 351Q94 370 83 376T38 385H20V408Q20 431 22 431L32 432Q42 433 60 434T96 436Q112 437 131 438T160 441T171 442H174V373Q213 441 271 441H277Q322 441 343 419T364 373Q364 352 351 337T313 322Q288 322 276 338T263 372Q263 381 265 388T270 400T273 405Q271 407 250 401Q234 393 226 386Q179 341 179 207V154Q179 141 179 127T179 101T180 81T180 66V61Q181 59 183 57T188 54T193 51T200 49T207 48T216 47T225 47T235 46T245 46H276V0H267Q249 3 140 3Q37 3 28 0H20V46H36Z" transform="translate(1450,0)"></path><path data-c="63" d="M370 305T349 305T313 320T297 358Q297 381 312 396Q317 401 317 402T307 404Q281 408 258 408Q209 408 178 376Q131 329 131 219Q131 137 162 90Q203 29 272 29Q313 29 338 55T374 117Q376 125 379 127T395 129H409Q415 123 415 120Q415 116 411 104T395 71T366 33T318 2T249 -11Q163 -11 99 53T34 214Q34 318 99 383T250 448T370 421T404 357Q404 334 387 320Z" transform="translate(1842,0)"></path><path data-c="65" d="M28 218Q28 273 48 318T98 391T163 433T229 448Q282 448 320 430T378 380T406 316T415 245Q415 238 408 231H126V216Q126 68 226 36Q246 30 270 30Q312 30 342 62Q359 79 369 104L379 128Q382 131 395 131H398Q415 131 415 121Q415 117 412 108Q393 53 349 21T250 -11Q155 -11 92 58T28 218ZM333 275Q322 403 238 411H236Q228 411 220 410T195 402T166 381T143 340T127 274V267H333V275Z" transform="translate(2286,0)"></path></g></g></g><g data-mml-node="mtd" transform="translate(4171,0)"><g data-mml-node="mtext"><path data-c="6F" d="M28 214Q28 309 93 378T250 448Q340 448 405 380T471 215Q471 120 407 55T250 -10Q153 -10 91 57T28 214ZM250 30Q372 30 372 193V225V250Q372 272 371 288T364 326T348 362T317 390T268 410Q263 411 252 411Q222 411 195 399Q152 377 139 338T126 246V226Q126 130 145 91Q177 30 250 30Z"></path><path data-c="74" d="M27 422Q80 426 109 478T141 600V615H181V431H316V385H181V241Q182 116 182 100T189 68Q203 29 238 29Q282 29 292 100Q293 108 293 146V181H333V146V134Q333 57 291 17Q264 -10 221 -10Q187 -10 162 2T124 33T105 68T98 100Q97 107 97 248V385H18V422H27Z" transform="translate(500,0)"></path><path data-c="68" d="M41 46H55Q94 46 102 60V68Q102 77 102 91T102 124T102 167T103 217T103 272T103 329Q103 366 103 407T103 482T102 542T102 586T102 603Q99 622 88 628T43 637H25V660Q25 683 27 683L37 684Q47 685 66 686T103 688Q120 689 140 690T170 693T181 694H184V367Q244 442 328 442Q451 442 463 329Q464 322 464 190V104Q464 66 466 59T477 49Q498 46 526 46H542V0H534L510 1Q487 2 460 2T422 3Q319 3 310 0H302V46H318Q379 46 379 62Q380 64 380 200Q379 335 378 343Q372 371 358 385T334 402T308 404Q263 404 229 370Q202 343 195 315T187 232V168V108Q187 78 188 68T191 55T200 49Q221 46 249 46H265V0H257L234 1Q210 2 183 2T145 3Q42 3 33 0H25V46H41Z" transform="translate(889,0)"></path><path data-c="65" d="M28 218Q28 273 48 318T98 391T163 433T229 448Q282 448 320 430T378 380T406 316T415 245Q415 238 408 231H126V216Q126 68 226 36Q246 30 270 30Q312 30 342 62Q359 79 369 104L379 128Q382 131 395 131H398Q415 131 415 121Q415 117 412 108Q393 53 349 21T250 -11Q155 -11 92 58T28 218ZM333 275Q322 403 238 411H236Q228 411 220 410T195 402T166 381T143 340T127 274V267H333V275Z" transform="translate(1445,0)"></path><path data-c="72" d="M36 46H50Q89 46 97 60V68Q97 77 97 91T98 122T98 161T98 203Q98 234 98 269T98 328L97 351Q94 370 83 376T38 385H20V408Q20 431 22 431L32 432Q42 433 60 434T96 436Q112 437 131 438T160 441T171 442H174V373Q213 441 271 441H277Q322 441 343 419T364 373Q364 352 351 337T313 322Q288 322 276 338T263 372Q263 381 265 388T270 400T273 405Q271 407 250 401Q234 393 226 386Q179 341 179 207V154Q179 141 179 127T179 101T180 81T180 66V61Q181 59 183 57T188 54T193 51T200 49T207 48T216 47T225 47T235 46T245 46H276V0H267Q249 3 140 3Q37 3 28 0H20V46H36Z" transform="translate(1889,0)"></path><path data-c="77" d="M90 368Q84 378 76 380T40 385H18V431H24L43 430Q62 430 84 429T116 428Q206 428 221 431H229V385H215Q177 383 177 368Q177 367 221 239L265 113L339 328L333 345Q323 374 316 379Q308 384 278 385H258V431H264Q270 428 348 428Q439 428 454 431H461V385H452Q404 385 404 369Q404 366 418 324T449 234T481 143L496 100L537 219Q579 341 579 347Q579 363 564 373T530 385H522V431H529Q541 428 624 428Q692 428 698 431H703V385H697Q696 385 691 385T682 384Q635 377 619 334L559 161Q546 124 528 71Q508 12 503 1T487 -11H479Q460 -11 456 -4Q455 -3 407 133L361 267Q359 263 266 -4Q261 -11 243 -11H238Q225 -11 220 -3L90 368Z" transform="translate(2281,0)"></path><path data-c="69" d="M69 609Q69 637 87 653T131 669Q154 667 171 652T188 609Q188 579 171 564T129 549Q104 549 87 564T69 609ZM247 0Q232 3 143 3Q132 3 106 3T56 1L34 0H26V46H42Q70 46 91 49Q100 53 102 60T104 102V205V293Q104 345 102 359T88 378Q74 385 41 385H30V408Q30 431 32 431L42 432Q52 433 70 434T106 436Q123 437 142 438T171 441T182 442H185V62Q190 52 197 50T232 46H255V0H247Z" transform="translate(3003,0)"></path><path data-c="73" d="M295 316Q295 356 268 385T190 414Q154 414 128 401Q98 382 98 349Q97 344 98 336T114 312T157 287Q175 282 201 278T245 269T277 256Q294 248 310 236T342 195T359 133Q359 71 321 31T198 -10H190Q138 -10 94 26L86 19L77 10Q71 4 65 -1L54 -11H46H42Q39 -11 33 -5V74V132Q33 153 35 157T45 162H54Q66 162 70 158T75 146T82 119T101 77Q136 26 198 26Q295 26 295 104Q295 133 277 151Q257 175 194 187T111 210Q75 227 54 256T33 318Q33 357 50 384T93 424T143 442T187 447H198Q238 447 268 432L283 424L292 431Q302 440 314 448H322H326Q329 448 335 442V310L329 304H301Q295 310 295 316Z" transform="translate(3281,0)"></path><path data-c="65" d="M28 218Q28 273 48 318T98 391T163 433T229 448Q282 448 320 430T378 380T406 316T415 245Q415 238 408 231H126V216Q126 68 226 36Q246 30 270 30Q312 30 342 62Q359 79 369 104L379 128Q382 131 395 131H398Q415 131 415 121Q415 117 412 108Q393 53 349 21T250 -11Q155 -11 92 58T28 218ZM333 275Q322 403 238 411H236Q228 411 220 410T195 402T166 381T143 340T127 274V267H333V275Z" transform="translate(3675,0)"></path></g></g></g></g><g data-mml-node="mo" transform="translate(16405.9,0) translate(0 250)"></g></g></g></g></svg>